<svg width="20" height="17" viewBox="0 0 20 17" fill="none" xmlns="http://www.w3.org/2000/svg">
<path fill-rule="evenodd" clip-rule="evenodd" d="M2.03053 7.4111C7.19836 5.15952 10.6444 3.6751 12.3687 2.95793C17.2918 0.910266 18.3148 0.5546 18.9815 0.54285C19.1282 0.540267 19.4561 0.5766 19.6685 0.748933C19.8479 0.894433 19.8972 1.09102 19.9208 1.22902C19.9444 1.36693 19.9738 1.68127 19.9504 1.92685C19.6837 4.73002 18.5293 11.5324 17.942 14.6719C17.6935 16.0004 17.2042 16.4459 16.7305 16.4894C15.701 16.5842 14.9193 15.8091 13.9222 15.1555C12.3619 14.1328 11.4805 13.4961 9.96603 12.498C8.21578 11.3447 9.35045 10.7108 10.3479 9.67477C10.6089 9.4036 15.1448 5.27793 15.2325 4.90368C15.2435 4.85685 15.2537 4.68235 15.1501 4.59018C15.0464 4.4981 14.8934 4.5296 14.783 4.55468C14.6265 4.59018 12.134 6.2376 7.30553 9.49702C6.59803 9.98285 5.9572 10.2195 5.38303 10.2071C4.75011 10.1934 3.53253 9.84927 2.62736 9.55502C1.51719 9.19418 0.634862 9.00335 0.711695 8.39052C0.751695 8.07127 1.19128 7.74477 2.03053 7.4111Z" fill="white"/>
</svg>
