<svg width="21" height="20" viewBox="0 0 21 20" fill="none" xmlns="http://www.w3.org/2000/svg">
<path d="M10.666 1.80233C13.3377 1.80233 13.6513 1.81425 14.7073 1.86183C15.6839 1.9055 16.2118 2.06825 16.5652 2.20725C17.0336 2.38983 17.3671 2.60417 17.7164 2.95358C18.0658 3.30292 18.2841 3.63633 18.4628 4.10483C18.5978 4.45808 18.7645 4.98608 18.8082 5.96267C18.8558 7.01867 18.8677 7.33225 18.8677 10.004C18.8677 12.6757 18.8558 12.9893 18.8082 14.0452C18.7645 15.0218 18.6017 15.5498 18.4628 15.9032C18.2802 16.3716 18.0658 16.705 17.7164 17.0544C17.3671 17.4038 17.0336 17.6221 16.5652 17.8008C16.2118 17.9357 15.6839 18.1024 14.7073 18.1461C13.6513 18.1938 13.3377 18.2057 10.666 18.2057C7.99435 18.2057 7.68068 18.1938 6.62476 18.1461C5.64818 18.1024 5.12018 17.9397 4.76685 17.8008C4.29843 17.6181 3.96493 17.4038 3.6156 17.0544C3.26627 16.705 3.04793 16.3716 2.86927 15.9032C2.73427 15.5498 2.5676 15.0218 2.52393 14.0452C2.47627 12.9893 2.46435 12.6757 2.46435 10.004C2.46435 7.33225 2.47627 7.01867 2.52393 5.96267C2.5676 4.98608 2.73035 4.45808 2.86927 4.10483C3.05185 3.63633 3.26627 3.30292 3.6156 2.95358C3.96493 2.60417 4.29843 2.38583 4.76685 2.20725C5.12018 2.07225 5.64818 1.9055 6.62476 1.86183C7.68068 1.81025 7.99827 1.80233 10.666 1.80233ZM10.666 0C7.95068 0 7.60927 0.0119165 6.54135 0.0595832C5.47743 0.107167 4.75093 0.277917 4.11577 0.524C3.45685 0.778084 2.90102 1.1235 2.34527 1.67925C1.78952 2.235 1.4481 2.79475 1.19002 3.44975C0.943933 4.08492 0.773182 4.81142 0.725599 5.87933C0.677932 6.94325 0.666016 7.28467 0.666016 10C0.666016 12.7153 0.677932 13.0568 0.725599 14.1247C0.773182 15.1886 0.943933 15.9151 1.19002 16.5542C1.4441 17.2132 1.78952 17.7689 2.34527 18.3248C2.90102 18.8805 3.46077 19.2219 4.11577 19.4799C4.75093 19.7261 5.47743 19.8968 6.54535 19.9444C7.61318 19.9921 7.95068 20.004 10.67 20.004C13.3893 20.004 13.7268 19.9921 14.7947 19.9444C15.8586 19.8968 16.585 19.7261 17.2242 19.4799C17.8832 19.2259 18.4389 18.8805 18.9948 18.3248C19.5505 17.7689 19.8919 17.2093 20.1499 16.5542C20.3961 15.919 20.5668 15.1925 20.6144 14.1247C20.6621 13.0568 20.6739 12.7193 20.6739 10C20.6739 7.28067 20.6621 6.94325 20.6144 5.87533C20.5668 4.81142 20.3961 4.08492 20.1499 3.44583C19.8958 2.78683 19.5505 2.23108 18.9948 1.67525C18.4389 1.1195 17.8792 0.778083 17.2242 0.520083C16.589 0.273916 15.8625 0.10325 14.7947 0.0555833C13.7228 0.0119167 13.3813 0 10.666 0Z" fill="white"/>
<path d="M10.6665 1.80237C13.3382 1.80237 13.6518 1.81428 14.7078 1.86187C15.6844 1.90553 16.2123 2.06828 16.5657 2.20728C17.0341 2.38987 17.3676 2.6042 17.7169 2.95362C18.0663 3.30295 18.2846 3.63637 18.4633 4.10487C18.5983 4.45812 18.765 4.98612 18.8087 5.9627C18.8563 7.0187 18.8682 7.33229 18.8682 10.004C18.8682 12.6757 18.8563 12.9893 18.8087 14.0453C18.765 15.0219 18.6022 15.5499 18.4633 15.9032C18.2807 16.3716 18.0663 16.705 17.7169 17.0545C17.3676 17.4038 17.0341 17.6221 16.5657 17.8008C16.2123 17.9357 15.6844 18.1025 14.7078 18.1461C13.6518 18.1938 13.3382 18.2057 10.6665 18.2057C7.99484 18.2057 7.68118 18.1938 6.62526 18.1461C5.64868 18.1025 5.12068 17.9397 4.76734 17.8008C4.29893 17.6181 3.96543 17.4038 3.61609 17.0545C3.26676 16.705 3.04843 16.3716 2.86976 15.9032C2.73476 15.5499 2.56809 15.0219 2.52443 14.0453C2.47676 12.9893 2.46484 12.6757 2.46484 10.004C2.46484 7.33229 2.47676 7.0187 2.52443 5.9627C2.56809 4.98612 2.73084 4.45812 2.86976 4.10487C3.05234 3.63637 3.26676 3.30295 3.61609 2.95362C3.96543 2.6042 4.29893 2.38587 4.76734 2.20728C5.12068 2.07228 5.64868 1.90553 6.62526 1.86187C7.68118 1.81028 7.99876 1.80237 10.6665 1.80237Z" fill="white"/>
<path d="M10.6662 4.86707C7.8318 4.86707 5.5293 7.16556 5.5293 10.004C5.5293 12.8425 7.8278 15.141 10.6662 15.141C13.5046 15.141 15.8032 12.8425 15.8032 10.004C15.8032 7.16556 13.5046 4.86707 10.6662 4.86707ZM10.6662 13.3347C8.82421 13.3347 7.33155 11.8421 7.33155 10.0001C7.33155 8.15806 8.82421 6.6654 10.6662 6.6654C12.5082 6.6654 14.0009 8.15806 14.0009 10.0001C14.0009 11.8421 12.5082 13.3347 10.6662 13.3347Z" fill="#334155"/>
<path d="M16.0056 5.85948C16.6676 5.85948 17.2045 5.32273 17.2045 4.66056C17.2045 3.99848 16.6676 3.46173 16.0056 3.46173C15.3434 3.46173 14.8066 3.99848 14.8066 4.66056C14.8066 5.32273 15.3434 5.85948 16.0056 5.85948Z" fill="#334155"/>
</svg>
