<svg width="16" height="16" viewBox="0 0 16 16" fill="none" xmlns="http://www.w3.org/2000/svg">
<g clip-path="url(#clip0_31_6477)">
<path d="M14.6669 11.2799V13.2799C14.6677 13.4656 14.6297 13.6494 14.5553 13.8195C14.4809 13.9896 14.3718 14.1423 14.235 14.2678C14.0982 14.3934 13.9367 14.4889 13.7608 14.5484C13.5849 14.6079 13.3985 14.63 13.2136 14.6133C11.1622 14.3904 9.19161 13.6894 7.46028 12.5666C5.8495 11.543 4.48384 10.1774 3.46028 8.56659C2.3336 6.82739 1.63244 4.84725 1.41361 2.78659C1.39695 2.60223 1.41886 2.41643 1.47795 2.24101C1.53703 2.06558 1.63199 1.90438 1.75679 1.76767C1.88159 1.63096 2.03348 1.52173 2.20281 1.44694C2.37213 1.37215 2.55517 1.33343 2.74028 1.33326H4.74028C5.06382 1.33007 5.37748 1.44464 5.62279 1.65561C5.8681 1.86658 6.02833 2.15955 6.07361 2.47992C6.15803 3.11997 6.31458 3.74841 6.54028 4.35326C6.62998 4.59187 6.64939 4.8512 6.59622 5.10051C6.54305 5.34982 6.41952 5.57866 6.24028 5.75992L5.39361 6.60659C6.34265 8.27562 7.72458 9.65755 9.39361 10.6066L10.2403 9.75992C10.4215 9.58068 10.6504 9.45716 10.8997 9.40398C11.149 9.35081 11.4083 9.37023 11.6469 9.45992C12.2518 9.68562 12.8802 9.84217 13.5203 9.92659C13.8441 9.97228 14.1399 10.1354 14.3513 10.3849C14.5627 10.6344 14.6751 10.953 14.6669 11.2799Z" stroke="white" stroke-width="1.33333" stroke-linecap="round" stroke-linejoin="round"/>
<path d="M9.36719 1.33331C10.726 1.47649 11.9953 2.07918 12.9651 3.0417C13.9349 4.00422 14.5471 5.26892 14.7005 6.62665" stroke="white" stroke-width="1.33333" stroke-linecap="round" stroke-linejoin="round"/>
<path d="M9.36719 4C10.0229 4.12929 10.6245 4.45268 11.0941 4.92821C11.5637 5.40373 11.8795 6.00942 12.0005 6.66667" stroke="white" stroke-width="1.33333" stroke-linecap="round" stroke-linejoin="round"/>
</g>
<defs>
<clipPath id="clip0_31_6477">
<rect width="16" height="16" fill="white"/>
</clipPath>
</defs>
</svg>
